<svg width="17" height="10" viewBox="0 0 17 10" fill="none" xmlns="http://www.w3.org/2000/svg">
<path fill-rule="evenodd" clip-rule="evenodd" d="M0 5C0 4.81059 0.108789 4.62895 0.302436 4.49502C0.496082 4.36109 0.758722 4.28584 1.03258 4.28584H12.996L8.56215 1.22068C8.36825 1.08658 8.25933 0.904705 8.25933 0.715059C8.25933 0.525414 8.36825 0.343536 8.56215 0.209436C8.75604 0.0753365 9.01901 0 9.29321 0C9.56742 0 9.83039 0.0753365 10.0243 0.209436L16.2198 4.49438C16.3159 4.56072 16.3922 4.63952 16.4443 4.72629C16.4963 4.81305 16.5231 4.90606 16.5231 5C16.5231 5.09394 16.4963 5.18695 16.4443 5.27371C16.3922 5.36048 16.3159 5.43928 16.2198 5.50562L10.0243 9.79056C9.83039 9.92466 9.56742 10 9.29321 10C9.01901 10 8.75604 9.92466 8.56215 9.79056C8.36825 9.65646 8.25933 9.47459 8.25933 9.28494C8.25933 9.0953 8.36825 8.91342 8.56215 8.77932L12.996 5.71416H1.03258C0.758722 5.71416 0.496082 5.63892 0.302436 5.50499C0.108789 5.37106 0 5.18941 0 5Z" fill="white"/>
</svg>
