<svg width="18" height="14" viewBox="0 0 18 14" fill="none" xmlns="http://www.w3.org/2000/svg">
<path d="M15.9308 0.359892C16.0425 0.245946 16.1758 0.155424 16.3229 0.0936272C16.47 0.0318303 16.6279 0 16.7874 0C16.947 0 17.1049 0.0318303 17.252 0.0936272C17.3991 0.155424 17.5324 0.245946 17.6441 0.359892C18.1121 0.832801 18.1186 1.59698 17.6604 2.07807L7.98462 13.5163C7.87477 13.6369 7.74146 13.7338 7.59284 13.8012C7.44423 13.8685 7.28344 13.9048 7.12031 13.9079C6.95718 13.911 6.79514 13.8807 6.6441 13.819C6.49306 13.7573 6.3562 13.6654 6.2419 13.549L0.35426 7.5828C0.127193 7.35123 0 7.03985 0 6.71553C0 6.39121 0.127193 6.07982 0.35426 5.84825C0.465935 5.73431 0.599221 5.64379 0.746314 5.58199C0.893406 5.52019 1.05135 5.48836 1.2109 5.48836C1.37044 5.48836 1.52839 5.52019 1.67548 5.58199C1.82257 5.64379 1.95586 5.73431 2.06753 5.84825L7.06171 10.9095L15.8981 0.395892L15.9308 0.359892Z" fill="#2DB95A"/>
</svg>
