<svg width="35" height="35" viewBox="0 0 35 35" fill="none" xmlns="http://www.w3.org/2000/svg">
<rect width="35" height="35" fill="#F2F6FF"/>
<path d="M19.6868 13.4902H2.91602C2.3181 13.4902 1.82227 12.9944 1.82227 12.3965C1.82227 11.7986 2.3181 11.3027 2.91602 11.3027H19.6868C20.2848 11.3027 20.7806 11.7986 20.7806 12.3965C20.7806 12.9944 20.2848 13.4902 19.6868 13.4902Z" fill="#2BC364"/>
<path d="M11.6667 25.1562H8.75C8.15208 25.1562 7.65625 24.6604 7.65625 24.0625C7.65625 23.4646 8.15208 22.9688 8.75 22.9688H11.6667C12.2646 22.9688 12.7604 23.4646 12.7604 24.0625C12.7604 24.6604 12.2646 25.1562 11.6667 25.1562Z" fill="#2BC364"/>
<path d="M21.1458 25.1562H15.3125C14.7146 25.1562 14.2188 24.6604 14.2188 24.0625C14.2188 23.4646 14.7146 22.9688 15.3125 22.9688H21.1458C21.7438 22.9688 22.2396 23.4646 22.2396 24.0625C22.2396 24.6604 21.7438 25.1562 21.1458 25.1562Z" fill="#2BC364"/>
<path d="M25.6077 30.9889H9.39102C3.58685 30.9889 1.82227 29.2389 1.82227 23.4931V11.5056C1.82227 5.75977 3.58685 4.00977 9.39102 4.00977H19.6868C20.2848 4.00977 20.7806 4.5056 20.7806 5.10352C20.7806 5.70143 20.2848 6.19727 19.6868 6.19727H9.39102C4.81185 6.19727 4.00977 6.98477 4.00977 11.5056V23.4785C4.00977 27.9993 4.81185 28.7868 9.39102 28.7868H25.5931C30.1723 28.7868 30.9743 27.9993 30.9743 23.4785V17.5285C30.9743 16.9306 31.4702 16.4348 32.0681 16.4348C32.666 16.4348 33.1618 16.9306 33.1618 17.5285V23.4785C33.1764 29.2389 31.4118 30.9889 25.6077 30.9889Z" fill="#2BC364"/>
<path fill-rule="evenodd" clip-rule="evenodd" d="M27.9763 4.375C27.8004 4.375 27.6317 4.44084 27.5074 4.55804C27.383 4.67523 27.3131 4.83419 27.3131 4.99993V12.2404L24.4669 9.55692C24.4053 9.49882 24.3321 9.45273 24.2515 9.42128C24.1709 9.38984 24.0846 9.37365 23.9974 9.37365C23.9102 9.37365 23.8239 9.38984 23.7433 9.42128C23.6628 9.45273 23.5896 9.49882 23.5279 9.55692C23.4662 9.61502 23.4173 9.684 23.384 9.75992C23.3506 9.83583 23.3334 9.9172 23.3334 9.99937C23.3334 10.0815 23.3506 10.1629 23.384 10.2388C23.4173 10.3147 23.4662 10.3837 23.5279 10.4418L27.5068 14.1914C27.5684 14.2496 27.6416 14.2958 27.7221 14.3273C27.8027 14.3588 27.8891 14.375 27.9763 14.375C28.0635 14.375 28.1499 14.3588 28.2304 14.3273C28.311 14.2958 28.3842 14.2496 28.4458 14.1914L32.4247 10.4418C32.5492 10.3245 32.6191 10.1653 32.6191 9.99937C32.6191 9.83342 32.5492 9.67427 32.4247 9.55692C32.3001 9.43958 32.1313 9.37365 31.9552 9.37365C31.7791 9.37365 31.6102 9.43958 31.4856 9.55692L28.6394 12.2404V4.99993C28.6394 4.83419 28.5696 4.67523 28.4452 4.55804C28.3208 4.44084 28.1522 4.375 27.9763 4.375Z" fill="#2BC364"/>
</svg>
