<svg width="27" height="27" viewBox="0 0 27 27" fill="none" xmlns="http://www.w3.org/2000/svg">
<path d="M14.8186 18.838H12.4577C10.7875 18.838 9.4186 17.4315 9.4186 15.6985C9.4186 15.1836 9.84558 14.7566 10.3605 14.7566C10.8753 14.7566 11.3023 15.1836 11.3023 15.6985C11.3023 16.3892 11.8172 16.9543 12.4577 16.9543H14.8186C15.3084 16.9543 15.6977 16.5147 15.6977 15.9747C15.6977 15.2966 15.5093 15.1961 15.0823 15.0454L11.3023 13.7268C10.4986 13.438 9.4186 12.8603 9.4186 11.0143C9.4186 9.4445 10.6619 8.15102 12.1814 8.15102H14.5423C16.2125 8.15102 17.5814 9.55753 17.5814 11.2906C17.5814 11.8054 17.1544 12.2324 16.6395 12.2324C16.1247 12.2324 15.6977 11.8054 15.6977 11.2906C15.6977 10.5999 15.1828 10.0347 14.5423 10.0347H12.1814C11.6916 10.0347 11.3023 10.4743 11.3023 11.0143C11.3023 11.6924 11.4907 11.7929 11.9177 11.9436L15.6977 13.2622C16.5014 13.551 17.5814 14.1287 17.5814 15.9747C17.5814 17.5571 16.3381 18.838 14.8186 18.838Z" fill="white"/>
<path d="M13.5 20.093C12.9851 20.093 12.5581 19.666 12.5581 19.1512V7.84884C12.5581 7.33395 12.9851 6.90698 13.5 6.90698C14.0149 6.90698 14.4419 7.33395 14.4419 7.84884V19.1512C14.4419 19.666 14.0149 20.093 13.5 20.093Z" fill="white"/>
<path d="M13.5 27C6.05302 27 0 20.947 0 13.5C0 6.05302 6.05302 0 13.5 0C14.0149 0 14.4419 0.426977 14.4419 0.94186C14.4419 1.45674 14.0149 1.88372 13.5 1.88372C7.09535 1.88372 1.88372 7.09535 1.88372 13.5C1.88372 19.9047 7.09535 25.1163 13.5 25.1163C19.9047 25.1163 25.1163 19.9047 25.1163 13.5C25.1163 12.9851 25.5433 12.5581 26.0581 12.5581C26.573 12.5581 27 12.9851 27 13.5C27 20.947 20.947 27 13.5 27Z" fill="white"/>
<path d="M26.0581 6.90698C25.5433 6.90698 25.1163 6.48 25.1163 5.96512V1.88372H21.0349C20.52 1.88372 20.093 1.45674 20.093 0.94186C20.093 0.426977 20.52 0 21.0349 0H26.0581C26.573 0 27 0.426977 27 0.94186V5.96512C27 6.48 26.573 6.90698 26.0581 6.90698Z" fill="white"/>
<path d="M19.7799 8.16357C19.5412 8.16357 19.3026 8.07567 19.1143 7.88729C18.7501 7.52311 18.7501 6.92032 19.1143 6.55613L25.3933 0.277064C25.7575 -0.0871221 26.3603 -0.0871221 26.7245 0.277064C27.0887 0.64125 27.0887 1.24404 26.7245 1.60822L20.4454 7.88729C20.2571 8.07567 20.0185 8.16357 19.7799 8.16357Z" fill="white"/>
</svg>
